<svg width="64" height="64" viewBox="0 0 64 64" fill="none" xmlns="http://www.w3.org/2000/svg">
<path d="M42.2295 21.3333C44.9426 21.3333 47.5445 20.2648 49.4629 18.3628C51.3813 16.4608 52.4591 13.8811 52.4591 11.1913C52.4591 8.50141 51.3813 5.92173 49.4629 4.01972C47.5445 2.11772 44.9426 1.04918 42.2295 1.04918H21.7705C19.0575 1.04918 16.4556 2.11772 14.5372 4.01972C12.6188 5.92173 11.541 8.50141 11.541 11.1913C11.541 13.8811 12.6188 16.4608 14.5372 18.3628C16.4556 20.2648 19.0575 21.3333 21.7705 21.3333C19.0575 21.3333 16.4556 22.4019 14.5372 24.3039C12.6188 26.2059 11.541 28.7856 11.541 31.4754C11.541 34.1653 12.6188 36.7449 14.5372 38.6469C16.4556 40.5489 19.0575 41.6175 21.7705 41.6175C19.7473 41.6175 17.7696 42.2123 16.0873 43.3267C14.4051 44.4412 13.0939 46.0251 12.3197 47.8784C11.5454 49.7316 11.3429 51.7708 11.7376 53.7382C12.1323 55.7056 13.1066 57.5127 14.5372 58.9311C15.9678 60.3495 17.7905 61.3154 19.7749 61.7068C21.7592 62.0981 23.816 61.8972 25.6852 61.1296C27.5544 60.362 29.152 59.0621 30.2761 57.3942C31.4001 55.7263 32 53.7655 32 51.7596V21.3333H42.2295Z" fill="#959595"/>
<path d="M42.4917 41.9672C47.9965 41.9672 52.459 37.5047 52.459 32C52.459 26.4953 47.9965 22.0328 42.4917 22.0328C36.987 22.0328 32.5245 26.4953 32.5245 32C32.5245 37.5047 36.987 41.9672 42.4917 41.9672Z" fill="#959595"/>
</svg>
