<svg width="61" height="61" viewBox="0 0 61 61" fill="none" xmlns="http://www.w3.org/2000/svg">
<path d="M0 0V61H61V0H0ZM32.6786 47.3839C32.6786 53.3219 29.1711 56.2167 24.0936 56.2167C19.5077 56.2167 16.8458 53.842 15.4951 50.9758L20.1627 48.1505C21.0627 49.7477 21.7462 51.0984 23.711 51.0984C25.345 51.0984 26.6875 50.3618 26.6875 47.4956V28.3214H32.6786V47.3839ZM46.2061 56.0805C40.8836 56.0805 37.4442 53.6786 35.7653 50.3618L40.4397 47.6563C41.6652 49.6633 43.2651 51.0004 46.0904 51.0004C48.465 51.0004 49.8444 49.9492 49.8444 48.3112C49.8444 46.3464 48.4242 45.6506 45.8031 44.4987L44.3707 43.8832C40.2341 42.124 37.4919 39.9128 37.4919 35.2438C37.4919 30.9452 40.7665 27.8054 45.8848 27.8054C49.5298 27.8054 52.1482 28.9382 54.034 32.2551L49.5625 35.1295C48.5794 33.3689 47.5201 32.6786 45.878 32.6786C44.1991 32.6786 43.1344 33.7433 43.1344 35.1295C43.1344 36.8492 44.1991 37.545 46.6555 38.6097L48.0879 39.2238C52.9611 41.3125 55.7047 43.4448 55.7047 48.2322C55.7061 53.3927 51.6526 56.0805 46.2061 56.0805Z" fill="#959595"/>
</svg>
