<svg width="70" height="62" viewBox="0 0 70 62" fill="none" xmlns="http://www.w3.org/2000/svg">
<path d="M15.4351 0C9.96358 0 4.76225 -2.51642e-07 1.21589 0.270199C0.776821 0.270199 0 0.540397 0 0.945695V60.1193C0 60.6259 0.236423 60.7948 0.675497 60.7948H9.08544C9.59206 60.7948 9.76094 60.5583 9.76094 60.1193V38.9762C11.247 38.9762 11.9563 38.9762 14.0503 38.9762C26.5133 38.9762 36.6457 32.9643 36.6457 18.9815C36.6457 8.37617 30.7014 0 15.4351 0ZM14.2868 30.3974C12.8019 30.4819 11.3134 30.4819 9.82849 30.3974V8.91657C10.808 8.91657 12.902 8.74769 15.0974 8.74769C22.4265 8.74769 26.7835 12.294 26.7835 19.2854C26.7835 28.0331 20.704 30.3974 14.2868 30.3974ZM69.61 48.2305C69.61 57.0457 62.855 61.7405 53.7358 61.7405C49.8282 61.884 45.9444 61.0725 42.4212 59.3762C42.0497 59.2073 41.9822 58.9371 41.9822 58.4981V50.3245C41.9822 49.7841 42.2524 49.6153 42.6577 49.8855C45.9498 52.0509 49.7955 53.2233 53.7358 53.263C58.1265 53.263 59.9504 51.4391 59.9504 48.9398C59.9504 46.4404 58.6669 45.1908 53.1954 42.1848C45.3596 38.4358 42.0835 34.6192 42.0835 28.2696C42.0835 21.1431 47.6563 15.2325 57.3159 15.2325C60.6856 15.0791 64.0515 15.6075 67.212 16.7861C67.391 16.901 67.5356 17.062 67.6307 17.2522C67.7258 17.4425 67.7679 17.6548 67.7524 17.8669V25.4325C67.7524 25.9053 67.4822 26.1755 66.9418 26.0066C63.9768 24.3433 60.6123 23.5255 57.2146 23.6424C52.8577 23.6424 51.3716 25.8715 51.3716 27.6954C51.3716 29.5192 52.3848 31.0729 58.1265 34.0788C66.908 38.1994 69.61 42.2186 69.61 48.1292V48.2305Z" fill="#959595"/>
</svg>
