<svg width="69" height="61" viewBox="0 0 69 61" fill="none" xmlns="http://www.w3.org/2000/svg">
<path d="M34.5 24.3882C33.6924 24.3882 32.8927 24.5463 32.1466 24.8533C31.4005 25.1604 30.7226 25.6105 30.1516 26.1779C29.5805 26.7453 29.1275 27.4189 28.8185 28.1603C28.5094 28.9016 28.3504 29.6962 28.3504 30.4986C28.3504 31.3011 28.5094 32.0956 28.8185 32.837C29.1275 33.5783 29.5805 34.2519 30.1516 34.8193C30.7226 35.3867 31.4005 35.8368 32.1466 36.1439C32.8927 36.451 33.6924 36.609 34.5 36.609C35.3076 36.609 36.1073 36.451 36.8534 36.1439C37.5995 35.8368 38.2774 35.3867 38.8484 34.8193C39.4195 34.2519 39.8725 33.5783 40.1815 32.837C40.4906 32.0956 40.6496 31.3011 40.6496 30.4986C40.6496 29.6962 40.4906 28.9016 40.1815 28.1603C39.8725 27.4189 39.4195 26.7453 38.8484 26.1779C38.2774 25.6105 37.5995 25.1604 36.8534 24.8533C36.1073 24.5463 35.3076 24.3882 34.5 24.3882ZM17.273 42.6537L15.916 42.311C5.80175 39.7714 0 35.4607 0 30.4872C0 25.5137 5.80175 21.203 15.916 18.6634L17.273 18.3235L17.6554 19.6604C18.68 23.1676 19.9905 26.586 21.574 29.8816L21.8644 30.4901L21.574 31.0985C19.9879 34.393 18.6772 37.8116 17.6554 41.3197L17.273 42.6537ZM15.2864 21.7858C7.59862 23.9311 2.88075 27.2135 2.88075 30.4872C2.88075 33.7581 7.59862 37.0404 15.2864 39.1886C16.2266 36.2175 17.3618 33.3108 18.6846 30.4872C17.3602 27.6643 16.225 24.7575 15.2864 21.7858ZM51.727 42.6537L51.3446 41.314C50.3211 37.807 49.0095 34.3894 47.4231 31.0957L47.1327 30.4872L47.4231 29.8787C49.0089 26.5837 50.3204 23.1653 51.3446 19.6576L51.727 18.3206L53.0869 18.6606C63.1982 21.2002 69 25.5109 69 30.4872C69 35.4635 63.1982 39.7714 53.0869 42.311L51.727 42.6537ZM50.3154 30.4872C51.6954 33.4553 52.8368 36.3719 53.7136 39.1886C61.4043 37.0404 66.1192 33.7581 66.1192 30.4872C66.1192 27.2135 61.4014 23.934 53.7136 21.7858C52.7747 24.7574 51.6395 27.6641 50.3154 30.4872ZM15.2662 21.7715L14.8839 20.4374C12.0405 10.4791 12.903 3.34312 17.25 0.852103C21.5136 -1.59321 28.359 1.29489 35.5321 8.61082L36.5096 9.60779L35.5321 10.6048C32.9833 13.2375 30.6545 16.0721 28.5689 19.0805L28.1807 19.6318L27.5051 19.689C23.8364 19.9764 20.1971 20.5591 16.6233 21.4316L15.2662 21.7715ZM20.7172 2.83178C19.9467 2.83178 19.2654 2.99746 18.6904 3.32598C15.8326 4.96285 15.3266 10.6533 17.296 18.3321C20.3597 17.6548 23.4646 17.1768 26.5909 16.9009C28.3947 14.3524 30.3655 11.9247 32.4904 9.63351C28.0054 5.29422 23.759 2.83178 20.7172 2.83178ZM48.2856 60.9993C48.2827 60.9993 48.2827 60.9993 48.2856 60.9993C44.1888 60.9993 38.9275 57.9341 33.4679 52.3636L32.4904 51.3666L33.4679 50.3696C36.016 47.736 38.3439 44.9005 40.4282 41.891L40.8164 41.3397L41.4891 41.2825C45.1598 40.9968 48.801 40.4149 52.3768 39.5428L53.7338 39.2029L54.119 40.5398C56.9566 50.4925 56.097 57.6313 51.75 60.1194C50.6941 60.7126 49.4985 61.0163 48.2856 60.9993ZM36.5096 51.3409C40.9946 55.6802 45.241 58.1426 48.2828 58.1426C49.0504 58.1426 49.7375 57.9769 50.3096 57.6484C53.1674 56.0115 53.6762 50.3182 51.704 42.6395C48.6395 43.3176 45.5336 43.7957 42.4062 44.0707C40.6046 46.6209 38.6347 49.0496 36.5096 51.3409ZM53.7338 21.7715L52.3768 21.4316C48.8014 20.5566 45.1601 19.9738 41.4891 19.689L40.8164 19.6318L40.4282 19.0805C38.3449 16.0712 36.017 13.2364 33.4679 10.6048L32.4904 9.60779L33.4679 8.61082C40.6381 1.29774 47.4806 -1.59035 51.75 0.852103C56.097 3.34312 56.9595 10.4791 54.119 20.4346L53.7338 21.7715ZM42.4062 16.9009C45.6895 17.198 48.8089 17.6807 51.704 18.3321C53.6762 10.6533 53.1674 4.96285 50.3096 3.32598C47.4691 1.69482 42.1303 4.19441 36.5096 9.63351C38.6335 11.9248 40.6033 14.3525 42.4062 16.9009ZM20.7172 60.9993C19.5034 61.0168 18.3067 60.7131 17.25 60.1194C12.903 57.6313 12.0405 50.4953 14.8839 40.5398L15.2634 39.2029L16.6204 39.5428C19.941 40.3741 23.6038 40.9597 27.5023 41.2825L28.1779 41.3397L28.5631 41.891C30.6491 44.9001 32.9779 47.7356 35.5264 50.3696L36.5039 51.3666L35.5264 52.3636C30.0696 57.9341 24.8084 60.9993 20.7172 60.9993ZM17.296 42.6395C15.3237 50.3182 15.8326 56.0115 18.6904 57.6484C21.528 59.2567 26.864 56.7771 32.4904 51.3409C30.3663 49.048 28.3956 46.6194 26.5909 44.0707C23.4644 43.796 20.3595 43.3179 17.296 42.6395ZM34.5 44.4335C32.1339 44.4335 29.7016 44.3306 27.2665 44.1306L26.5909 44.0735L26.2028 43.5222C24.8254 41.5556 23.5305 39.5333 22.3215 37.4603C21.1161 35.3857 19.9977 33.2623 18.9692 31.0957L18.6846 30.4872L18.9692 29.8787C19.9975 27.712 21.1159 25.5886 22.3215 23.5141C23.5117 21.4687 24.8199 19.429 26.2028 17.4522L26.5909 16.9009L27.2665 16.8437C32.0812 16.4381 36.9217 16.4381 41.7364 16.8437L42.4091 16.9009L42.7944 17.4522C45.552 21.386 47.9726 25.5428 50.0308 29.8787L50.3211 30.4872L50.0308 31.0957C47.9775 35.4342 45.5567 39.5913 42.7944 43.5222L42.4091 44.0735L41.7364 44.1306C39.3013 44.3306 36.8661 44.4335 34.5 44.4335ZM28.1836 41.3368C32.4386 41.6539 36.5614 41.6539 40.8192 41.3368C43.1964 37.8838 45.3069 34.2569 47.1327 30.4872C45.3102 26.7152 43.1985 23.088 40.8164 19.6376C36.6115 19.3205 32.3885 19.3205 28.1836 19.6376C25.8005 23.0873 23.6888 26.7146 21.8673 30.4872C23.6951 34.2565 25.8065 37.8833 28.1836 41.3368Z" fill="#959595"/>
</svg>
