<svg width="88" height="61" viewBox="0 0 88 61" fill="none" xmlns="http://www.w3.org/2000/svg">
<path d="M87.9637 42.9879C87.711 40.9221 86.6729 39.1302 84.8699 37.6554C84.8475 37.6278 84.8228 37.6023 84.7961 37.5791L84.705 37.5133L84.6757 37.4925L83.7184 36.7992L83.6857 36.775L83.5637 36.6883C83.5189 36.662 83.471 36.6416 83.4211 36.6277C80.3926 34.8097 75.379 33.5359 67.7082 36.2655C65.8778 33.1599 65.6698 30.6712 66.8953 26.8585C67.1136 26.1948 66.9107 25.7563 66.2576 25.4721C64.9445 24.9089 63.1467 25.1965 61.8714 25.5362C61.2767 25.6922 60.9192 26.0319 60.8057 26.5466C59.9979 30.3593 57.6501 33.8427 55.3797 37.2048L55.2456 37.4023C53.8465 34.4111 54.137 32.094 55.1115 29.1912C55.3057 28.6124 55.1528 28.2276 54.6148 27.9399C53.1126 27.1583 50.8593 27.6956 49.9622 27.9625C48.8243 28.2969 47.604 31.3974 46.2411 35.1095C45.8973 36.0436 45.6017 36.8426 45.4247 37.2152C45.0036 38.0817 44.6014 39.0695 44.1751 40.118C43.2126 42.4905 42.1281 45.1612 40.5778 46.8387C40.014 45.5823 40.9009 43.6014 41.762 41.6795C42.7812 39.4075 43.7437 37.2602 42.6351 35.8894C42.4598 35.6727 42.2423 35.4944 41.9961 35.3657C41.7499 35.2369 41.4801 35.1604 41.2034 35.1407C40.8424 35.113 40.4801 35.1724 40.1464 35.314C40.2615 34.3349 40.2667 33.5619 39.9831 32.6278C39.5775 31.2951 38.5239 30.5482 37.0733 30.588C33.7698 30.6851 30.9751 33.1668 29.21 35.2326C28.0344 36.619 25.4287 37.6762 23.1411 38.6033C22.237 38.9898 21.3776 39.3364 20.6609 39.683C19.5179 38.709 18.0656 37.7264 16.5359 36.6883C12.239 33.7803 7.36983 30.4823 7.20139 26.0111C6.96077 19.4065 14.4201 14.7221 20.9308 11.379C25.8653 8.84878 30.1553 7.1712 34.0465 6.25443C39.5122 4.96678 44.1287 5.22673 47.7656 7.0239C49.7559 8.00653 50.6875 10.1434 50.0962 12.3409C48.5493 18.0512 42.1401 21.9644 36.659 23.7252C33.3573 24.7858 30.5472 25.2295 28.0653 25.0839C24.9544 24.9019 22.414 23.3283 21.3278 22.6576C21.1538 22.5378 20.9697 22.4334 20.7778 22.3457L20.7279 22.3336C20.6296 22.3089 20.5264 22.312 20.4297 22.3426C20.3329 22.3731 20.2465 22.43 20.1797 22.5069C19.9562 22.7755 20.0353 23.2001 20.1161 23.415C21.1731 26.2 23.3559 27.959 26.6026 28.6436C27.6652 28.8581 28.7468 28.9621 29.8304 28.9538C37.429 28.9538 47.1245 24.5363 50.6858 20.8986C53.1143 18.4204 54.8829 15.8728 55.6151 11.4795C56.38 6.87832 53.2862 3.68086 50.134 2.20778C42.4736 -1.35708 33.7733 0.0518791 27.8229 1.86117C20.862 3.97721 13.6605 7.82456 8.06764 12.4206C1.17202 18.0824 -1.32017 23.3387 0.656394 28.0613C2.68624 32.9016 7.63623 35.9293 12.423 38.8581C13.9698 39.8026 15.4411 40.702 16.7662 41.631C16.3675 41.8268 15.9601 42.0261 15.5459 42.2254C11.5275 44.1889 6.96936 46.3985 4.44108 50.0501C2.60546 52.7103 2.26171 55.3583 3.42014 57.9215C4.03889 59.2854 5.13889 60.2109 6.66686 60.6718C7.4617 60.8989 8.28486 61.0092 9.11092 60.9994C12.0861 60.9994 15.3603 59.7863 17.1426 58.665C20.2914 56.672 22.3315 53.9962 23.2081 50.7121C23.9884 47.7902 23.8011 44.8873 22.6667 42.2964L26.5253 40.3346C24.6639 46.5736 26.0904 50.2996 27.6579 52.355C28.2354 53.1123 29.277 53.5681 30.4406 53.5889C31.6042 53.6097 32.675 53.1678 33.28 52.4156C34.4247 50.9859 35.2703 49.3135 36.0489 47.6411C36.0076 48.7329 36.0592 49.8386 36.4287 50.7762C36.7604 51.6202 37.307 52.18 38.0117 52.3949C38.7611 52.6254 39.6393 52.4313 40.485 51.8489C44.2954 49.2199 46.9011 42.9099 48.9945 37.8373C49.2918 37.1164 49.5772 36.4232 49.8539 35.775C50.3718 37.644 51.0923 39.4497 52.0023 41.1596C52.2051 41.5304 52.1879 41.6933 51.9129 41.9984C51.4987 42.4559 50.9212 43.0087 50.3093 43.5945C48.4565 45.3674 46.15 47.5805 45.8406 49.5267C45.7203 50.3065 46.2531 51.0171 47.0798 51.1783C49.5668 51.6774 52.5626 50.9478 55.0961 49.2286C57.3992 47.6689 58.2654 45.4939 57.6742 42.7834C57.1018 40.1735 58.4081 36.9327 61.5568 33.1443C62.0725 35.3158 62.76 37.0713 63.7087 38.6085L63.6829 38.6293C61.3901 40.6483 58.2482 43.4125 58.7364 46.7659C58.7773 47.0849 58.8838 47.3917 59.0489 47.6668C59.214 47.9419 59.4342 48.1793 59.6954 48.3638C59.9746 48.5538 60.2897 48.6837 60.6209 48.7451C60.9522 48.8065 61.2925 48.7983 61.6204 48.7208C64.6231 48.0848 66.8832 46.8041 68.5264 44.8093C70.1695 42.8146 69.5696 40.6033 69.0162 38.8876C73.3131 37.7126 77.139 37.742 80.7209 38.9742C82.7318 39.6674 84.1739 40.806 85.0057 42.3779C86.0525 44.3553 85.487 46.1802 83.409 47.5163C82.7714 47.9271 82.4637 48.1784 82.4448 48.4955C82.4406 48.5691 82.454 48.6427 82.4839 48.7099C82.5138 48.7772 82.5594 48.8362 82.6167 48.882C82.8573 49.0813 83.5998 49.4279 85.279 48.3621C86.8259 47.3829 87.7334 46.0502 87.9654 44.3761C88.0121 43.9145 88.0115 43.4494 87.9637 42.9879ZM19.2601 47.3309L19.2429 47.5527C18.9748 50.0899 17.6961 52.3013 15.4359 54.1383C14.0162 55.2925 12.4745 56.0013 11.0961 56.1365C10.1336 56.2301 9.43405 56.0984 9.01811 55.7431C8.70702 55.4779 8.5403 55.0811 8.50249 54.53C8.22061 50.1142 15.0887 45.7261 18.9542 44.2825C19.2301 45.2732 19.3336 46.3046 19.2601 47.3309ZM36.8515 34.8773C36.2156 38.5323 34.3611 45.4315 31.4461 48.109C31.3068 48.2373 31.19 48.2824 31.1367 48.2702C31.0834 48.2581 31.0422 48.194 30.9992 48.0969C30.0264 45.8232 30.3856 41.9828 31.8586 38.9655C32.9912 36.6398 34.6086 35.0991 36.4167 34.6329C36.4917 34.6121 36.5692 34.601 36.647 34.6C36.7079 34.5957 36.7684 34.6122 36.8189 34.6468C36.8402 34.6807 36.8541 34.7188 36.8597 34.7585C36.8653 34.7983 36.8625 34.8387 36.8515 34.8773ZM51.2014 48.2009C50.6531 48.778 49.902 48.7 50.079 48.4886L52.8703 45.5008C52.6451 46.5285 51.98 47.3794 51.2014 48.2009ZM62.7806 45.6169C62.5151 45.7488 62.2279 45.8305 61.9332 45.8578C61.8542 44.286 63.365 42.5165 64.8551 41.3363C65.2556 42.9758 64.4357 44.7088 62.7806 45.6169Z" fill="#959595"/>
</svg>
